# This file uses centimeters as units for non-parametric coordinates.

mtllib bush.mtl
g default
v -6.300867 0.495273 1.421967
v 6.081893 0.495273 1.421967
v -6.300867 0.814543 1.421967
v 6.081893 0.814543 1.421967
v -6.300867 0.814543 -1.395188
v 6.081893 0.814543 -1.395188
v -6.300867 0.495273 -1.395188
v 6.081893 0.495273 -1.395188
vt 0.375000 0.000000
vt 0.625000 0.000000
vt 0.375000 0.250000
vt 0.625000 0.250000
vt 0.375000 0.500000
vt 0.625000 0.500000
vt 0.375000 0.750000
vt 0.625000 0.750000
vt 0.375000 1.000000
vt 0.625000 1.000000
vt 0.875000 0.000000
vt 0.875000 0.250000
vt 0.125000 0.000000
vt 0.125000 0.250000
vn 0.000000 0.000000 1.000000
vn 0.000000 0.000000 1.000000
vn 0.000000 0.000000 1.000000
vn 0.000000 0.000000 1.000000
vn 0.000000 1.000000 0.000000
vn 0.000000 1.000000 0.000000
vn 0.000000 1.000000 0.000000
vn 0.000000 1.000000 0.000000
vn 0.000000 0.000000 -1.000000
vn 0.000000 0.000000 -1.000000
vn 0.000000 0.000000 -1.000000
vn 0.000000 0.000000 -1.000000
vn 0.000000 -1.000000 0.000000
vn 0.000000 -1.000000 0.000000
vn 0.000000 -1.000000 0.000000
vn 0.000000 -1.000000 0.000000
vn 1.000000 0.000000 0.000000
vn 1.000000 0.000000 0.000000
vn 1.000000 0.000000 0.000000
vn 1.000000 0.000000 0.000000
vn -1.000000 0.000000 0.000000
vn -1.000000 0.000000 0.000000
vn -1.000000 0.000000 0.000000
vn -1.000000 0.000000 0.000000
s off
g pCube66 bush
usemtl initialShadingGroup
f 1/1/1 2/2/2 4/4/3 3/3/4
f 3/3/5 4/4/6 6/6/7 5/5/8
f 5/5/9 6/6/10 8/8/11 7/7/12
f 7/7/13 8/8/14 2/10/15 1/9/16
f 2/2/17 8/11/18 6/12/19 4/4/20
f 7/13/21 1/1/22 3/3/23 5/14/24
g default
v -5.995027 0.264571 1.428237
v 6.039977 0.264571 1.428237
v -5.995027 0.264571 -1.372346
v 6.039977 0.264571 -1.372346
v 6.227453 1.006483 -1.372346
v 6.039977 1.006483 -1.559830
v -5.995027 1.006483 -1.559830
v -6.182509 1.006483 -1.372346
v -6.182509 1.006483 1.428237
v -5.995027 1.006483 1.615723
v 6.039977 1.006483 1.615723
v 6.227453 1.006483 1.428237
v -5.995027 1.006483 -1.858322
v -5.944284 1.006483 -1.909060
v -6.045752 1.006483 -1.909060
v -6.045752 0.264571 -1.909060
v -5.944284 0.264571 -1.909060
v -5.995027 0.264571 -1.858322
v -6.045752 0.264571 1.909060
v -5.995027 0.264571 1.858322
v -5.944284 0.264571 1.909060
v -6.045752 1.006483 1.909060
v -5.944284 1.006483 1.909060
v -5.995027 1.006483 1.858322
v 6.039977 1.006483 -1.858322
v 6.090715 1.006483 -1.909060
v 5.989243 1.006483 -1.909060
v 6.039977 0.264571 -1.858322
v 5.989243 0.264571 -1.909060
v 6.090715 0.264571 -1.909060
v 6.039977 0.264571 1.858322
v 6.090715 0.264571 1.909060
v 5.989243 0.264571 1.909060
v 6.039977 1.006483 1.858322
v 5.989243 1.006483 1.909060
v 6.090715 1.006483 1.909060
v -6.428576 1.006483 1.428237
v -6.479319 1.006483 1.377500
v -6.479319 1.006483 1.478972
v -6.479319 0.264571 1.377500
v -6.428576 0.264571 1.428237
v -6.479319 0.264571 1.478972
v 6.479319 0.264571 1.377500
v 6.479319 0.264571 1.478972
v 6.428588 0.264571 1.428237
v 6.479319 1.006483 1.478972
v 6.479319 1.006483 1.377500
v 6.428588 1.006483 1.428237
v -6.428576 1.006483 -1.372346
v -6.479319 1.006483 -1.423083
v -6.479319 1.006483 -1.321607
v -6.479319 0.264571 -1.423083
v -6.428576 0.264571 -1.372346
v -6.479319 0.264571 -1.321607
v 6.479319 0.264571 -1.423083
v 6.479319 0.264571 -1.321607
v 6.428588 0.264571 -1.372346
v 6.428588 1.006483 -1.372346
v 6.479319 1.006483 -1.321607
v 6.479319 1.006483 -1.423083
v -6.479319 0.264571 1.634486
v -6.440477 0.264571 1.728241
v -6.440477 1.006483 1.728241
v -6.479319 1.006483 1.634486
v -6.298498 0.264571 1.870226
v -6.204748 0.264571 1.909060
v -6.204748 1.006483 1.909060
v -6.298498 1.006483 1.870226
v 6.204754 0.264571 1.909060
v 6.298498 0.264571 1.870228
v 6.298498 1.006483 1.870228
v 6.204754 1.006483 1.909060
v 6.440489 0.264571 1.728239
v 6.479319 0.264571 1.634486
v 6.479319 1.006483 1.634486
v 6.440489 1.006483 1.728239
v -6.479319 1.006483 -1.634490
v -6.440477 1.006483 -1.728241
v -6.440477 0.264571 -1.728241
v -6.479319 0.264571 -1.634490
v -6.298498 1.006483 -1.870226
v -6.204748 1.006483 -1.909060
v -6.204748 0.264571 -1.909060
v -6.298498 0.264571 -1.870226
v 6.204754 1.006483 -1.909060
v 6.298498 1.006483 -1.870228
v 6.298498 0.264571 -1.870228
v 6.204754 0.264571 -1.909060
v 6.440489 1.006483 -1.728239
v 6.479319 1.006483 -1.634490
v 6.479319 0.264571 -1.634490
v 6.440489 0.264571 -1.728239
v 6.001144 1.006483 -1.191525
v 6.039977 1.006483 -1.097774
v 6.072912 1.006483 -1.191285
v 6.001144 0.338771 -1.191525
v 6.039977 0.338771 -1.097774
v 5.859144 1.006483 -1.333514
v 5.858909 1.006483 -1.405283
v 5.765400 1.006483 -1.372346
v 5.765400 0.338771 -1.372346
v 5.859144 0.338771 -1.333514
v -5.814200 1.006483 -1.333514
v -5.720450 1.006483 -1.372346
v -5.813959 1.006483 -1.405283
v -5.814200 0.338771 -1.333514
v -5.720450 0.338771 -1.372346
v -5.956191 1.006483 -1.191525
v -6.027968 1.006483 -1.191285
v -5.995027 1.006483 -1.097774
v -5.995027 0.338771 -1.097774
v -5.956191 0.338771 -1.191525
v -5.956191 1.006483 1.247415
v -5.995027 1.006483 1.153666
v -6.027968 1.006483 1.247175
v -5.956191 0.338771 1.247415
v -5.995027 0.338771 1.153666
v -5.814200 1.006483 1.389403
v -5.813959 1.006483 1.461176
v -5.720450 1.006483 1.428237
v -5.720450 0.338771 1.428237
v -5.814200 0.338771 1.389403
v 5.859144 1.006483 1.389403
v 5.765400 1.006483 1.428237
v 5.858909 1.006483 1.461176
v 5.859144 0.338771 1.389403
v 5.765400 0.338771 1.428237
v 6.001144 1.006483 1.247415
v 6.072912 1.006483 1.247175
v 6.039977 1.006483 1.153666
v 6.039977 0.338771 1.153666
v 6.001144 0.338771 1.247415
vt 0.384343 0.753322
vt 0.385323 1.000000
vt 0.616524 0.996678
vt 0.615545 1.000000
vt 0.375000 0.788466
vt 0.384343 0.968517
vt 0.375000 0.965195
vt 0.625000 0.965186
vt 0.616524 0.968517
vt 0.624021 0.785143
vt 0.625000 0.788465
vt 0.384343 0.996678
vt 0.383365 1.000000
vt 0.380297 1.000000
vt 0.378489 0.997457
vt 0.375749 0.988160
vt 0.375000 0.982022
vt 0.375000 0.267978
vt 0.375749 0.261840
vt 0.378489 0.252543
vt 0.375979 0.281483
vt 0.375000 0.278161
vt 0.617503 1.000000
vt 0.624021 0.968517
vt 0.625000 0.971839
vt 0.625000 0.982022
vt 0.624251 0.988160
vt 0.621512 0.997457
vt 0.619703 1.000000
vt 0.616524 0.269207
vt 0.616524 0.253322
vt 0.621512 0.252543
vt 0.624251 0.261840
vt 0.625000 0.267978
vt 0.625000 0.278161
vt 0.375000 0.468179
vt 0.375749 0.488160
vt 0.375000 0.482022
vt 0.375000 0.767978
vt 0.384343 0.785143
vt 0.375979 0.785143
vt 0.375000 0.781821
vt 0.624021 0.464857
vt 0.625000 0.468179
vt 0.625000 0.482022
vt 0.625000 0.781821
vt 0.616524 0.785143
vt 0.616524 0.753322
vt 0.624251 0.761840
vt 0.625000 0.767978
vt 0.616524 0.477133
vt 0.387836 0.467014
vt 0.384343 0.477133
vt 0.380726 0.464857
vt 0.375000 0.284832
vt 0.383708 0.293338
vt 0.375979 0.464857
vt 0.375000 0.461535
vt 0.380726 0.281483
vt 0.384343 0.269207
vt 0.384343 0.253322
vt 0.613031 0.279326
vt 0.620141 0.281483
vt 0.620141 0.464857
vt 0.617160 0.453002
vt 0.624021 0.281483
vt 0.625000 0.284805
vt 0.625000 0.461535
vt 0.346839 0.000000
vt 0.357022 0.000000
vt 0.363910 0.250000
vt 0.375946 -0.000000
vt 0.380297 0.250000
vt 0.619703 0.000000
vt 0.624054 0.250000
vt 0.636091 0.000000
vt 0.642978 0.250000
vt 0.142978 0.250000
vt 0.375749 0.761840
vt 0.378489 0.497457
vt 0.380297 0.750000
vt 0.619702 0.500000
vt 0.621512 0.752543
vt 0.624251 0.488160
vt 0.857022 0.000000
vt 0.615775 0.453018
vt 0.611227 0.464857
vt 0.387832 0.462315
vt 0.384343 0.446879
vt 0.385092 0.293323
vt 0.389641 0.281483
vt 0.613036 0.284026
vt 0.616524 0.299461
vt 0.383365 0.500000
vt 0.385322 0.750000
vt 0.383365 -0.000000
vt 0.385322 0.250000
vt 0.615545 0.500000
vt 0.617503 0.750000
vt 0.615545 0.000000
vt 0.617503 0.250000
vt 0.346839 0.250000
vt 0.340195 -0.000000
vt 0.653161 0.000000
vt 0.659805 0.250000
vt 0.163465 0.250000
vt 0.156820 0.000000
vt 0.836535 0.000000
vt 0.843179 0.250000
vt 0.363909 0.000000
vt 0.357022 0.250000
vt 0.380297 -0.000000
vt 0.375946 0.250000
vt 0.624054 0.000000
vt 0.619703 0.250000
vt 0.642978 0.000000
vt 0.636091 0.250000
vt 0.139382 0.250000
vt 0.139382 0.000000
vt 0.142978 0.000000
vt 0.380297 0.500000
vt 0.378489 0.752543
vt 0.621512 0.497457
vt 0.619703 0.750000
vt 0.860618 0.250000
vt 0.857022 0.250000
vt 0.860618 0.000000
vt 0.616524 0.446879
vt 0.616524 0.446879
vt 0.613036 0.462315
vt 0.613036 0.462315
vt 0.389640 0.464857
vt 0.389640 0.464857
vt 0.385092 0.453018
vt 0.385092 0.453018
vt 0.384343 0.299461
vt 0.384343 0.299461
vt 0.387832 0.284026
vt 0.387832 0.284026
vt 0.611227 0.281483
vt 0.611227 0.281483
vt 0.615775 0.293323
vt 0.615775 0.293323
vt 0.384343 0.496678
vt 0.385322 0.500000
vt 0.383365 0.750000
vt 0.384343 0.000000
vt 0.385322 0.000000
vt 0.383365 0.250000
vt 0.616524 0.496678
vt 0.617503 0.500000
vt 0.615545 0.750000
vt 0.616524 0.000000
vt 0.617503 0.000000
vt 0.615545 0.250000
vt 0.343517 0.250000
vt 0.340195 0.250000
vt 0.375979 0.968517
vt 0.375000 0.971839
vt 0.659805 0.000000
vt 0.656483 0.000000
vt 0.653161 0.250000
vt 0.656483 0.250000
vt 0.160143 0.250000
vt 0.156821 0.250000
vt 0.160143 0.000000
vt 0.163465 -0.000000
vt 0.843179 0.000000
vt 0.839857 0.000000
vt 0.839857 0.250000
vt 0.836535 0.250000
vt 0.615775 0.453018
vt 0.613031 0.467014
vt 0.611227 0.464857
vt 0.387832 0.462315
vt 0.383708 0.453002
vt 0.384343 0.446879
vt 0.385092 0.293323
vt 0.387836 0.279326
vt 0.389640 0.281483
vt 0.613036 0.284026
vt 0.617160 0.293338
vt 0.616524 0.299461
vn -0.151865 0.000000 0.988401
vn -0.151865 0.000000 0.988401
vn 0.000000 0.000000 1.000000
vn 0.000000 0.000000 1.000000
vn -0.151865 0.000000 -0.988401
vn -0.151865 0.000000 -0.988401
vn 0.000000 0.000000 -1.000000
vn 0.000000 0.000000 -1.000000
vn 0.988083 0.000000 0.153920
vn 0.988083 0.000000 0.153920
vn 1.000000 0.000000 0.000000
vn 1.000000 0.000000 0.000000
vn -1.000000 0.000000 0.000000
vn -1.000000 0.000000 0.000000
vn -0.988076 0.000000 0.153967
vn -0.988076 0.000000 0.153967
vn 0.000000 0.000000 -1.000000
vn 0.000000 0.000000 -1.000000
vn 0.000000 0.000000 -1.000000
vn 0.000000 0.000000 -1.000000
vn 0.000000 0.000000 1.000000
vn 0.000000 0.000000 1.000000
vn 0.000000 0.000000 1.000000
vn 0.000000 0.000000 1.000000
vn 0.000000 0.000000 -1.000000
vn 0.000000 0.000000 -1.000000
vn 0.183706 0.000000 -0.982981
vn 0.183706 0.000000 -0.982981
vn 0.000000 0.000000 1.000000
vn 0.000000 0.000000 1.000000
vn 0.183706 0.000000 0.982981
vn 0.183706 0.000000 0.982981
vn -1.000000 0.000000 0.000000
vn -1.000000 0.000000 0.000000
vn -1.000000 0.000000 0.000000
vn -1.000000 0.000000 0.000000
vn 0.000000 -1.000000 0.000000
vn 0.000000 -1.000000 0.000000
vn 0.000000 -1.000000 0.000000
vn 0.000000 -1.000000 0.000000
vn 1.000000 0.000000 0.000000
vn 1.000000 0.000000 0.000000
vn 1.000000 0.000000 0.000000
vn 1.000000 0.000000 0.000000
vn -0.991996 0.000000 -0.126267
vn -0.991996 0.000000 -0.126267
vn -1.000000 0.000000 0.000000
vn -1.000000 0.000000 0.000000
vn 0.000000 -1.000000 0.000000
vn 0.000000 -1.000000 0.000000
vn 0.000000 -1.000000 0.000000
vn 0.000000 -1.000000 0.000000
vn 1.000000 0.000000 0.000000
vn 1.000000 0.000000 0.000000
vn 0.992001 0.000000 -0.126228
vn 0.992001 0.000000 -0.126228
vn -0.003353 0.000000 0.999994
vn -0.003353 0.000000 0.999994
vn 0.003353 0.000000 0.999994
vn 0.003353 0.000000 0.999994
vn 0.999863 0.000000 0.016558
vn 0.999863 0.000000 0.016558
vn 0.999863 0.000000 -0.016558
vn 0.999863 0.000000 -0.016558
vn 0.003354 0.000000 -0.999994
vn 0.003354 0.000000 -0.999994
vn -0.003354 0.000000 -0.999994
vn -0.003354 0.000000 -0.999994
vn -0.999863 0.000000 -0.016556
vn -0.999863 0.000000 -0.016556
vn -0.999863 0.000000 0.016556
vn -0.999863 0.000000 0.016556
vn 0.000000 1.000000 -0.000000
vn 0.000000 1.000000 -0.000000
vn 0.000000 1.000000 0.000000
vn 0.000000 1.000000 0.000000
vn 0.000000 1.000000 -0.000000
vn 0.000000 1.000000 -0.000000
vn 0.000000 1.000000 0.000000
vn 0.000000 1.000000 0.000000
vn 0.000000 1.000000 0.000000
vn 0.000000 1.000000 0.000000
vn 0.000000 1.000000 -0.000000
vn 0.000000 1.000000 -0.000000
vn 0.000000 1.000000 0.000000
vn 0.000000 1.000000 0.000000
vn 0.000000 1.000000 0.000000
vn 0.000000 1.000000 0.000000
vn 0.000000 1.000000 0.000000
vn 0.000000 1.000000 0.000000
vn -0.793465 0.000000 0.608616
vn -0.793465 0.000000 0.608616
vn -0.608629 0.000000 0.793455
vn -0.608629 0.000000 0.793455
vn 0.608623 0.000000 0.793460
vn 0.608623 0.000000 0.793460
vn 0.793467 0.000000 0.608613
vn 0.793467 0.000000 0.608613
vn -0.793460 0.000000 -0.608622
vn -0.793460 0.000000 -0.608622
vn -0.608629 0.000000 -0.793455
vn -0.608629 0.000000 -0.793455
vn 0.608623 0.000000 -0.793460
vn 0.608623 0.000000 -0.793460
vn 0.793462 0.000000 -0.608619
vn 0.793462 0.000000 -0.608619
vn -0.793445 0.000000 0.608642
vn -0.793445 0.000000 0.608642
vn -0.608608 0.000000 0.793471
vn -0.608608 0.000000 0.793471
vn 0.608613 0.000000 0.793467
vn 0.608613 0.000000 0.793467
vn 0.793455 0.000000 0.608629
vn 0.793455 0.000000 0.608629
vn 0.793452 0.000000 -0.608632
vn 0.793452 0.000000 -0.608632
vn 0.608617 0.000000 -0.793464
vn 0.608617 0.000000 -0.793464
vn -0.608612 0.000000 -0.793468
vn -0.608612 0.000000 -0.793468
vn -0.793442 0.000000 -0.608646
vn -0.793442 0.000000 -0.608646
vn 0.000000 1.000000 0.000000
vn 0.000000 1.000000 0.000000
vn 0.000000 1.000000 0.000000
vn 0.000000 1.000000 0.000000
vn 0.000000 1.000000 0.000000
vn 0.000000 1.000000 0.000000
vn 0.000000 1.000000 0.000000
vn 0.000000 1.000000 0.000000
vn 0.000000 1.000000 0.000000
vn 0.000000 1.000000 0.000000
vn 0.000000 -1.000000 0.000000
vn 0.000000 -1.000000 0.000000
vn 0.000000 -1.000000 0.000000
vn 0.000000 -1.000000 0.000000
vn 0.000000 1.000000 0.000000
vn 0.000000 1.000000 0.000000
vn 0.000000 1.000000 0.000000
vn 0.000000 1.000000 0.000000
vn 0.000000 1.000000 0.000000
vn 0.000000 1.000000 0.000000
vn 0.000000 -1.000000 0.000000
vn 0.000000 -1.000000 0.000000
vn 0.000000 -1.000000 0.000000
vn 0.000000 -1.000000 0.000000
vn 0.000000 -1.000000 0.000000
vn 0.000000 -1.000000 0.000000
vn 0.000000 -1.000000 0.000000
vn 0.000000 1.000000 -0.000000
vn 0.000000 1.000000 0.000000
vn 0.000000 1.000000 0.000000
vn 0.000000 1.000000 -0.000000
vn 0.000000 1.000000 -0.000000
vn 0.000000 1.000000 -0.000000
vn 0.000000 1.000000 -0.000000
vn 0.000000 1.000000 -0.000000
vn 0.000000 1.000000 -0.000000
vn 0.000000 1.000000 -0.000000
vn 0.000000 -1.000000 0.000000
vn 0.000000 -1.000000 0.000000
vn 0.000000 -1.000000 0.000000
vn 0.000000 -1.000000 0.000000
vn 0.000000 -1.000000 0.000000
vn 0.000000 -1.000000 0.000000
vn 0.000000 -1.000000 0.000000
vn 0.000000 -1.000000 0.000000
vn 0.000000 -1.000000 0.000000
vn 0.000000 -1.000000 0.000000
vn 0.000000 1.000000 -0.000000
vn 0.000000 1.000000 -0.000000
vn 0.000000 1.000000 -0.000000
vn 0.000000 1.000000 -0.000000
vn 0.000000 1.000000 -0.000000
vn 0.000000 1.000000 -0.000000
vn 0.000000 -1.000000 0.000000
vn 0.000000 -1.000000 0.000000
vn 0.000000 -1.000000 0.000000
vn 0.000000 -1.000000 0.000000
vn 0.000000 -1.000000 0.000000
vn 0.000000 -1.000000 0.000000
vn 0.000000 -1.000000 0.000000
vn 0.000000 -1.000000 0.000000
vn 0.000000 -1.000000 0.000000
vn 0.000000 1.000000 0.000000
vn 0.000000 1.000000 0.000000
vn 0.000000 1.000000 0.000000
vn 0.000000 1.000000 0.000000
vn 0.000000 1.000000 0.000000
vn 0.000000 1.000000 -0.000000
vn 0.000000 1.000000 -0.000000
vn 0.000000 1.000000 0.000000
vn 0.000000 -1.000000 0.000000
vn 0.000000 -1.000000 0.000000
vn 0.000000 -1.000000 0.000000
vn 0.000000 -1.000000 0.000000
vn 0.000000 -1.000000 0.000000
vn 0.000000 -1.000000 0.000000
vn 0.000000 1.000000 -0.000000
vn 0.000000 1.000000 -0.000000
vn 0.000000 1.000000 -0.000000
vn 0.000000 1.000000 -0.000000
vn 0.000000 1.000000 -0.000000
vn 0.000000 1.000000 -0.000000
vn 0.000000 1.000000 -0.000000
vn 0.000000 1.000000 -0.000000
vn 0.000000 1.000000 -0.000000
vn 0.000000 1.000000 -0.000000
vn 0.000000 1.000000 -0.000000
vn 0.000000 1.000000 -0.000000
vn 0.000000 1.000000 -0.000000
vn 0.000000 1.000000 -0.000000
vn 0.000000 1.000000 -0.000000
vn 0.000000 1.000000 -0.000000
vn 0.000000 1.000000 -0.000000
vn 0.000000 1.000000 -0.000000
vn 0.000000 1.000000 0.000000
vn 0.000000 1.000000 0.000000
vn 0.000000 1.000000 0.000000
vn 0.000000 1.000000 -0.000000
vn 0.000000 1.000000 0.000000
vn 0.000000 1.000000 -0.000000
vn 0.000000 1.000000 -0.000000
vn 0.000000 1.000000 -0.000000
vn 0.000000 1.000000 -0.000000
vn 0.000000 1.000000 -0.000000
vn 0.000000 1.000000 -0.000000
vn 0.000000 1.000000 -0.000000
s 1
g bush pCube65
usemtl initialShadingGroup
f 75/87/25 74/126/26 27/110/27 30/163/28
f 91/95/29 90/135/30 23/108/31 24/160/32
f 83/91/33 82/130/34 52/118/35 54/176/36
f 47/116/37 50/83/38 69/84/39 72/125/40
f 25/109/41 22/159/42 35/112/43 37/166/44
f 31/111/45 29/162/46 41/114/47 43/169/48
f 38/113/49 34/165/50 93/96/51 96/138/52
f 44/115/53 40/168/54 77/88/55 80/129/56
f 59/120/57 62/181/58 48/117/59 46/171/60
s 6
f 10/23/61 9/20/62 11/54/63 12/61/64
s 1
f 55/119/65 51/174/66 64/122/67 67/185/68
f 85/92/69 88/134/70 60/121/71 58/179/72
s 6
f 12/61/64 11/54/63 26/15/73 25/109/74 37/166/75 36/62/76
s 1
f 68/123/77 63/182/78 99/99/79 98/140/80
s 8
f 109/101/81 108/188/82 112/146/83 115/147/84
f 119/103/85 118/191/86 122/150/87 125/151/88
f 129/105/89 128/194/90 132/154/91 135/155/92
f 139/107/93 138/197/94 102/142/95 105/143/96
s 12
f 13/78/97 103/79/98 102/142/99 138/197/100 137/196/101 20/77/102 56/80/103 55/81/104 67/82/105 66/57/106
f 20/77/102 19/44/107 42/45/108 44/115/109 80/129/110 79/46/111 84/47/112 83/48/113 54/49/114 56/80/103
s 1
f 71/85/115 70/124/116 73/86/117 76/127/118
f 79/89/119 78/128/120 81/90/121 84/131/122
f 87/93/123 86/51/124 89/94/125 92/136/126
f 95/97/127 94/137/128 97/98/129 100/63/130
s 8
f 104/100/131 101/186/132 106/144/133 110/145/134
f 114/102/135 111/189/136 116/148/137 120/149/138
f 124/104/139 121/192/140 126/152/141 130/153/142
f 134/106/143 131/195/144 136/156/145 140/157/146
s 12
f 22/159/147 21/158/148 15/67/149 113/66/150 112/146/151 108/188/152 107/187/153 14/65/154 33/164/155 35/112/156
s 6
f 29/16/157 28/26/158 9/20/62 10/23/61 39/17/159 41/18/160
s 12
f 34/165/161 33/164/155 14/65/154 13/78/97 66/57/106 68/58/162 98/59/163 97/98/164 94/137/165 93/96/166
s 6
f 40/37/167 39/17/159 10/23/61 53/38/168 52/39/169 82/40/170 81/41/171 78/42/172 77/43/173
s 12
f 46/69/174 45/35/175 17/73/176 123/70/177 122/150/178 118/191/179 117/190/180 16/68/181 57/71/182 59/72/183
s 6
f 50/173/184 49/172/185 9/20/62 28/26/158 27/27/186 74/28/187 73/29/188 70/30/189 69/31/190
f 51/22/191 53/38/168 10/23/61 12/61/64 65/24/192 64/25/193
s 12
f 58/50/194 57/71/182 16/68/181 15/67/149 21/158/148 23/108/195 90/135/196 89/94/197 86/51/198 85/52/199
s 6
f 62/19/200 61/55/201 11/54/63 9/20/62 49/172/185 48/21/202
f 63/60/203 65/24/192 12/61/64 36/62/76 38/113/204 96/138/205 95/97/206 100/63/207 99/64/208
s 12
f 72/32/209 71/33/210 76/34/211 75/87/212 30/163/213 32/75/214 18/74/215 17/73/176 45/35/175 47/36/216
s 6
f 88/53/217 87/93/218 92/136/219 91/95/220 24/160/221 26/15/73 11/54/63 61/55/201 60/56/222
s 12
f 101/186/223 103/79/98 13/78/97 14/65/154 107/187/153 106/144/224
s off
f 105/143/225 104/100/226 110/145/227 109/101/228 115/147/229 114/102/230 120/149/231 119/103/232 125/151/233 124/104/234 130/153/235 129/105/236 135/155/237 134/106/238 140/157/239 139/107/240
s 12
f 111/189/241 113/66/150 15/67/149 16/68/181 117/190/180 116/148/242
f 121/192/243 123/70/177 17/73/176 18/74/215 127/193/244 126/152/245
f 128/194/246 127/193/244 18/74/215 32/75/214 31/111/247 43/169/248 42/45/108 19/44/107 133/76/249 132/154/250
f 131/195/251 133/76/249 19/44/107 20/77/102 137/196/101 136/156/252
s 1
f 23/108/31 22/159/42 25/109/41 24/160/32
f 27/110/27 29/162/46 31/111/45 30/163/28
f 35/112/43 34/165/50 38/113/49 37/166/44
f 41/114/47 40/168/54 44/115/53 43/169/48
f 47/116/37 46/171/60 48/117/59 50/83/38
f 52/118/35 51/174/66 55/119/65 54/176/36
f 59/120/57 58/179/72 60/121/71 62/181/58
f 64/122/67 63/182/78 68/123/77 67/185/68
f 69/84/39 70/124/116 71/85/115 72/125/40
f 73/86/117 74/126/26 75/87/25 76/127/118
f 77/88/55 78/128/120 79/89/119 80/129/56
f 81/90/121 82/130/34 83/91/33 84/131/122
f 85/92/69 86/132/124 87/133/123 88/134/70
f 89/94/125 90/135/30 91/95/29 92/136/126
f 93/96/51 94/137/128 95/97/127 96/138/52
f 97/139/129 98/140/80 99/99/79 100/141/130
s 8
f 102/142/95 101/186/132 104/100/131 105/143/96
f 106/144/133 108/188/82 109/101/81 110/145/134
f 112/146/83 111/189/136 114/102/135 115/147/84
f 116/148/137 118/191/86 119/103/85 120/149/138
f 122/150/87 121/192/140 124/104/139 125/151/88
f 126/152/141 128/194/90 129/105/89 130/153/142
f 132/154/91 131/195/144 134/106/143 135/155/92
f 136/156/145 138/197/94 139/107/93 140/157/146
s 12
f 21/158/148 22/159/147 23/108/195
s 6
f 24/160/221 25/109/74 26/15/73
f 27/110/186 28/161/158 29/162/157
s 12
f 30/163/213 31/111/247 32/75/214
f 33/164/155 34/165/161 35/112/156
s 6
f 36/62/76 37/166/75 38/113/204
f 39/167/159 40/168/167 41/114/160
s 12
f 42/45/108 43/169/248 44/115/109
f 45/170/175 46/171/174 47/116/216
s 6
f 48/21/202 49/172/185 50/173/184
f 51/174/191 52/118/169 53/175/168
s 12
f 54/176/114 55/119/104 56/177/103
f 57/178/182 58/179/194 59/120/183
s 6
f 60/121/222 61/180/201 62/181/200
f 63/182/203 64/122/193 65/183/192
s 12
f 66/184/106 67/185/105 68/123/162
f 101/186/223 102/142/99 103/79/98
f 106/144/224 107/187/153 108/188/152
f 111/189/241 112/146/151 113/66/150
f 116/148/242 117/190/180 118/191/179
f 121/192/243 122/150/178 123/70/177
f 126/152/245 127/193/244 128/194/246
f 131/195/251 132/154/250 133/76/249
f 136/156/252 137/196/101 138/197/100
