# This file uses centimeters as units for non-parametric coordinates.

mtllib outdoor_v1.mtl
g default
v -81.275645 -0.970431 57.734782
v 85.359346 -0.970431 57.734782
v -81.275645 0.970431 57.734782
v 85.359346 0.970431 57.734782
v -81.275645 0.970431 -59.827513
v 85.359346 0.970431 -59.827513
v -81.275645 -0.970431 -59.827513
v 85.359346 -0.970431 -59.827513
v -83.084769 -0.970431 59.543887
v 87.168495 -0.970431 59.543887
v 87.168495 0.970428 59.543887
v -83.084769 0.970428 59.543887
v -83.084769 0.970428 -61.636660
v 87.168495 0.970428 -61.636660
v 87.168495 -0.970431 -61.636660
v -83.084769 -0.970431 -61.636660
v -103.050884 -4.701912 79.510050
v 107.134621 -4.701912 79.510050
v 107.134621 -4.701912 -81.602802
v -103.050884 -4.701912 -81.602802
v -81.681098 1.646251 58.140193
v -81.275645 1.240800 57.734782
v 85.359346 1.240800 57.734782
v 85.764795 1.646251 58.140193
v -83.084769 1.240800 59.543887
v -82.679326 1.646251 59.138363
v 86.763062 1.646251 59.138363
v 87.168495 1.240800 59.543887
v -81.275645 1.240800 -59.827513
v -81.681098 1.646251 -60.233023
v 85.764795 1.646251 -60.233023
v 85.359346 1.240800 -59.827513
v 87.168495 1.240800 -61.636660
v 86.763062 1.646251 -61.231234
v -82.679326 1.646251 -61.231234
v -83.084769 1.240800 -61.636660
v 107.134621 -3.731381 79.510050
v -103.050884 -3.731382 79.510050
v -103.050884 -3.731382 -81.602802
v 107.134621 -3.731382 -81.602802
v 106.657676 -3.157024 79.033080
v 105.447097 -2.445667 77.822479
v 106.657676 -3.157027 -81.125832
v 105.447097 -2.445667 -79.915252
v -102.573910 -3.157025 79.033080
v -101.363331 -2.445666 77.822450
v -102.573910 -3.157026 -81.125832
v -101.363331 -2.445667 -79.915252
vt 0.375000 0.000000
vt 0.625000 0.000000
vt 0.375000 0.500000
vt 0.375000 0.750000
vt 0.625000 0.750000
vt 0.375000 1.000000
vt 0.625000 1.000000
vt 0.875000 0.000000
vt 0.125000 0.000000
vt 0.375000 0.000000
vt 0.625000 0.000000
vt 0.625000 0.750000
vt 0.375000 0.750000
vt 0.875000 0.000000
vt 0.125000 0.000000
vt 0.625000 0.750000
vt 0.125000 0.000000
vt 0.125000 0.250000
vt 0.875000 0.250000
vt 0.125000 0.250000
vt 0.875000 0.250000
vt 0.375000 0.500000
vt 0.625000 0.500000
vt 0.625000 0.500000
vt 0.375000 0.500000
vt 0.375000 0.250000
vt 0.625000 0.250000
vt 0.625000 0.500000
vt 0.375000 0.500000
vt 0.625000 0.250000
vt 0.875000 0.250000
vt 0.125000 0.250000
vt 0.375000 0.250000
vt 0.375000 0.250000
vt 0.625000 0.250000
vt 0.375000 0.250000
vt 0.625000 0.500000
vt 0.375000 0.500000
vt 0.375000 0.500000
vt 0.625000 0.500000
vt 0.875000 0.250000
vt 0.625000 0.250000
vt 0.875000 0.250000
vt 0.875000 0.250000
vt 0.625000 0.250000
vt 0.125000 0.250000
vt 0.375000 0.250000
vt 0.125000 0.250000
vt 0.625000 0.000000
vt 0.625000 0.624987
vt 0.375000 0.750000
vt 0.875000 0.000000
vt 0.375000 0.000000
vt 0.125000 0.125012
vt 0.875000 0.187513
vt 0.625000 0.500000
vt 0.375000 0.562487
vt 0.125000 0.250000
vt 0.625000 0.187513
vt 0.875000 0.125013
vt 0.625000 0.125013
vt 0.375000 0.187513
vt 0.375000 0.125013
vt 0.125000 0.187513
vt 0.375000 0.624987
vt 0.625000 0.562487
vt 0.375000 0.250000
vt 0.625000 0.250000
vt 0.625000 0.500000
vt 0.375000 0.500000
vt 0.625000 0.250000
vt 0.875000 0.250000
vt 0.125000 0.250000
vt 0.375000 0.250000
vn 0.000000 1.000000 0.000000
vn 0.000000 1.000000 0.000000
vn 0.000000 1.000000 0.000000
vn 0.000000 1.000000 0.000000
vn 0.000000 -1.000000 -0.000000
vn 0.000000 -1.000000 -0.000000
vn 0.000000 -1.000000 0.000000
vn 0.000000 -1.000000 0.000000
vn -0.076683 -0.991852 -0.101727
vn 0.076683 -0.991852 -0.101727
vn 0.076683 -0.991852 0.101727
vn -0.076683 -0.991852 0.101727
vn -0.078120 -0.991172 -0.107121
vn 0.078120 -0.991172 -0.107121
vn 0.078120 -0.991172 0.107121
vn -0.078120 -0.991172 0.107121
vn 0.707095 0.707119 0.000000
vn 0.707095 0.707119 0.000000
vn 0.707095 0.707119 0.000000
vn 0.707095 0.707119 0.000000
vn 0.000000 0.707072 -0.707141
vn 0.000000 0.707072 -0.707141
vn 0.000000 0.707073 -0.707141
vn 0.000000 0.707072 -0.707141
vn -0.707095 0.707119 0.000000
vn -0.707095 0.707119 0.000000
vn -0.707095 0.707119 0.000000
vn -0.707095 0.707119 0.000000
vn -0.707119 0.707095 0.000000
vn -0.707119 0.707095 0.000000
vn -0.707119 0.707095 0.000000
vn -0.707119 0.707095 0.000000
vn 0.000000 0.707170 0.707043
vn 0.000000 0.707170 0.707043
vn 0.000000 0.707170 0.707043
vn 0.000000 0.707170 0.707043
vn 0.707127 0.707087 0.000000
vn 0.707127 0.707086 0.000000
vn 0.707127 0.707087 0.000000
vn 0.707127 0.707087 0.000000
vn 0.000000 0.707158 0.707056
vn 0.000000 0.707158 0.707055
vn 0.000000 0.707158 0.707056
vn 0.000000 0.707158 0.707056
vn 0.000000 0.707085 -0.707129
vn 0.000000 0.707085 -0.707129
vn 0.000000 0.707085 -0.707129
vn 0.000000 0.707085 -0.707129
vn 0.000000 1.000000 0.000000
vn 0.000000 1.000000 0.000000
vn 0.000000 1.000000 0.000000
vn 0.000000 1.000000 0.000000
vn 0.000000 1.000000 -0.000000
vn 0.000000 1.000000 -0.000000
vn 0.000000 1.000000 -0.000000
vn 0.000000 1.000000 -0.000000
vn 0.000000 0.000000 -1.000000
vn 0.000000 0.000000 -1.000000
vn 0.000000 0.000000 -1.000000
vn 0.000000 0.000000 -1.000000
vn 0.000000 0.000000 1.000000
vn 0.000000 0.000000 1.000000
vn 0.000000 0.000000 1.000000
vn 0.000000 0.000000 1.000000
vn 0.000000 0.000000 1.000000
vn 0.000000 0.000000 1.000000
vn 0.000000 0.000000 1.000000
vn 0.000000 0.000000 1.000000
vn 0.000000 0.000000 -1.000000
vn 0.000000 0.000000 -1.000000
vn 0.000000 0.000000 -1.000000
vn 0.000000 0.000000 -1.000000
vn -1.000000 0.000000 0.000000
vn -1.000000 0.000000 0.000000
vn -1.000000 0.000000 0.000000
vn -1.000000 0.000000 0.000000
vn 1.000000 0.000000 0.000000
vn 1.000000 0.000000 0.000000
vn 1.000000 0.000000 0.000000
vn 1.000000 0.000000 0.000000
vn 1.000000 0.000000 0.000000
vn 1.000000 0.000000 0.000000
vn 1.000000 0.000000 0.000000
vn 1.000000 0.000000 0.000000
vn -1.000000 0.000000 0.000000
vn -1.000000 0.000000 0.000000
vn -1.000000 0.000000 0.000000
vn -1.000000 0.000000 0.000000
vn -0.000000 0.000000 1.000000
vn -0.000000 0.000000 1.000000
vn -0.000000 0.000000 1.000000
vn -0.000000 0.000000 1.000000
vn 0.000000 0.000000 -1.000000
vn 0.000000 0.000000 -1.000000
vn 0.000000 0.000000 -1.000000
vn 0.000000 0.000000 -1.000000
vn 1.000000 0.000000 0.000000
vn 1.000000 0.000000 0.000000
vn 1.000000 0.000000 0.000000
vn 1.000000 0.000000 0.000000
vn -1.000000 0.000000 0.000000
vn -1.000000 0.000000 0.000000
vn -1.000000 0.000000 0.000000
vn -1.000000 0.000000 0.000000
vn -0.000000 0.794149 0.607723
vn 0.090507 0.988254 0.123138
vn -0.090507 0.988254 0.123139
vn -0.000000 0.794149 0.607723
vn 0.608394 0.793635 -0.000000
vn 0.608395 0.793635 -0.000000
vn 0.090507 0.988254 -0.123139
vn 0.000000 0.794143 -0.607731
vn 0.000000 0.794143 -0.607731
vn -0.090508 0.988254 -0.123139
vn -0.608388 0.793640 -0.000000
vn -0.608388 0.793640 -0.000000
vn 0.769326 0.638857 -0.000000
vn 0.769326 0.638857 -0.000000
vn 0.000000 0.638870 0.769315
vn 0.000000 0.638870 0.769315
vn -0.769307 0.638880 -0.000000
vn -0.769307 0.638880 -0.000000
vn 0.000000 0.638871 -0.769313
vn 0.000000 0.638871 -0.769313
vn 0.079480 0.991210 0.105767
vn -0.079480 0.991209 0.105768
vn -0.079480 0.991209 -0.105767
vn 0.079480 0.991209 -0.105767
s off
g pCube67 outside
usemtl initialShadingGroup
f 3/34/1 4/42/2 6/37/3 5/3/4
s 1
f 7/4/5 8/5/6 2/7/7 1/6/8
f 1/1/8 2/2/7 10/11/9 9/10/10
f 8/5/6 7/4/5 16/13/11 15/12/12
f 2/2/7 8/8/6 15/14/12 10/11/9
f 7/9/5 1/1/8 9/10/10 16/15/11
f 9/10/10 10/11/9 18/49/13 17/53/14
f 15/12/12 16/13/11 20/51/15 19/16/16
f 10/11/9 15/14/12 19/52/16 18/49/13
f 16/15/11 9/10/10 17/53/14 20/17/15
s off
f 21/26/17 22/47/18 29/18/19 30/32/20
f 22/47/21 21/26/22 24/30/23 23/35/24
f 23/35/25 24/30/26 31/19/27 32/43/28
f 25/36/29 26/33/30 35/20/31 36/48/32
f 26/33/33 25/36/34 28/45/35 27/27/36
f 27/27/37 28/45/38 33/21/39 34/31/40
f 30/22/41 29/38/42 32/23/43 31/28/44
f 34/24/45 33/40/46 36/25/47 35/29/48
s 2
f 24/30/49 21/26/50 26/33/51 27/27/52
f 30/22/53 31/28/54 34/24/55 35/29/56
f 31/19/54 24/30/49 27/27/52 34/31/55
f 21/26/50 30/32/53 35/20/56 26/33/51
s off
f 4/42/57 3/34/58 22/47/59 23/35/60
f 12/67/61 11/71/62 28/45/63 25/36/64
f 5/3/65 6/37/66 32/23/67 29/38/68
f 14/69/69 13/39/70 36/25/71 33/40/72
f 6/41/73 4/42/74 23/35/75 32/43/76
f 11/71/77 14/44/78 33/21/79 28/45/80
f 3/34/81 5/46/82 29/18/83 22/47/84
f 13/73/85 12/67/86 25/36/87 36/48/88
f 17/53/89 18/49/90 37/61/91 38/63/92
f 39/65/93 40/50/94 19/16/95 20/51/96
f 18/49/97 19/52/98 40/60/99 37/61/100
f 20/17/101 17/53/102 38/63/103 39/54/104
s 3
f 41/59/105 42/68/106 46/74/107 45/62/108
f 42/68/106 41/59/109 43/55/110 44/72/111
f 44/56/111 43/66/112 47/57/113 48/70/114
f 45/62/115 46/74/107 48/58/114 47/64/116
f 41/59/109 37/61/117 40/60/118 43/55/110
f 37/61/119 41/59/105 45/62/108 38/63/120
f 38/63/121 45/62/115 47/64/116 39/54/122
f 39/65/123 47/57/113 43/66/112 40/50/124
f 11/71/125 12/67/126 46/74/107 42/68/106
f 13/39/127 14/69/128 44/56/111 48/70/114
f 14/44/128 11/71/125 42/68/106 44/72/111
f 12/67/126 13/73/127 48/58/114 46/74/107
g default
v -82.180492 0.316922 58.224067
v 86.180349 0.316922 58.224067
v -82.180492 1.316922 58.224067
v 86.180349 1.316922 58.224067
v -82.180492 1.316922 -60.224087
v 86.180349 1.316922 -60.224087
v -82.180492 0.316922 -60.224087
v 86.180349 0.316922 -60.224087
vt 0.375000 0.000000
vt 0.625000 0.000000
vt 0.375000 0.250000
vt 0.625000 0.250000
vt 0.375000 0.500000
vt 0.625000 0.500000
vt 0.375000 0.750000
vt 0.625000 0.750000
vt 0.375000 1.000000
vt 0.625000 1.000000
vt 0.875000 0.000000
vt 0.875000 0.250000
vt 0.125000 0.000000
vt 0.125000 0.250000
vn 0.000000 0.000000 1.000000
vn 0.000000 0.000000 1.000000
vn 0.000000 0.000000 1.000000
vn 0.000000 0.000000 1.000000
vn 0.000000 1.000000 0.000000
vn 0.000000 1.000000 0.000000
vn 0.000000 1.000000 0.000000
vn 0.000000 1.000000 0.000000
vn 0.000000 0.000000 -1.000000
vn 0.000000 0.000000 -1.000000
vn 0.000000 0.000000 -1.000000
vn 0.000000 0.000000 -1.000000
vn 0.000000 -1.000000 0.000000
vn 0.000000 -1.000000 0.000000
vn 0.000000 -1.000000 0.000000
vn 0.000000 -1.000000 0.000000
vn 1.000000 0.000000 0.000000
vn 1.000000 0.000000 0.000000
vn 1.000000 0.000000 0.000000
vn 1.000000 0.000000 0.000000
vn -1.000000 0.000000 0.000000
vn -1.000000 0.000000 0.000000
vn -1.000000 0.000000 0.000000
vn -1.000000 0.000000 0.000000
s off
g outside pCube68
usemtl initialShadingGroup
f 49/75/129 50/76/130 52/78/131 51/77/132
f 51/77/133 52/78/134 54/80/135 53/79/136
f 53/79/137 54/80/138 56/82/139 55/81/140
f 55/81/141 56/82/142 50/84/143 49/83/144
f 50/76/145 56/85/146 54/86/147 52/78/148
f 55/87/149 49/75/150 51/77/151 53/88/152
g default
v -130.646143 -5.135511 106.796815
v 134.646079 -5.135511 106.796815
v -130.646143 -4.135511 106.796815
v 134.646079 -4.135511 106.796815
v -130.646143 -4.135511 -108.796771
v 134.646079 -4.135511 -108.796771
v -130.646143 -5.135511 -108.796771
v 134.646079 -5.135511 -108.796771
v -133.025156 -5.135511 109.175779
v 137.025107 -5.135511 109.175779
v 137.025107 -4.135511 109.175779
v -133.025156 -4.135511 109.175779
v -133.025156 -4.135511 -111.175786
v 137.025107 -4.135511 -111.175786
v 137.025107 -5.135511 -111.175786
v -133.025156 -5.135511 -111.175786
v -131.092613 -3.242475 107.243289
v -130.646143 -3.688949 106.796815
v 134.646079 -3.688949 106.796815
v 135.092565 -3.242475 107.243289
v -130.646143 -3.688949 -108.796771
v -131.092613 -3.242475 -109.243244
v 135.092565 -3.242475 -109.243244
v 134.646079 -3.688949 -108.796771
v -133.025156 -3.688949 109.175779
v -132.578686 -3.242475 108.729306
v 137.025107 -3.688949 109.175779
v 136.578606 -3.242475 108.729306
v 137.025107 -3.688949 -111.175786
v 136.578606 -3.242475 -110.729313
v -133.025156 -3.688949 -111.175786
v -132.578686 -3.242475 -110.729313
vt 0.375000 0.000000
vt 0.625000 0.000000
vt 0.375000 0.500000
vt 0.375000 0.750000
vt 0.625000 0.750000
vt 0.375000 1.000000
vt 0.625000 1.000000
vt 0.875000 0.000000
vt 0.125000 0.000000
vt 0.375000 0.000000
vt 0.625000 0.000000
vt 0.625000 0.500000
vt 0.625000 0.750000
vt 0.375000 0.750000
vt 0.875000 0.000000
vt 0.125000 0.000000
vt 0.125000 0.250000
vt 0.125000 0.250000
vt 0.875000 0.250000
vt 0.375000 0.500000
vt 0.625000 0.500000
vt 0.375000 0.250000
vt 0.625000 0.250000
vt 0.625000 0.500000
vt 0.375000 0.500000
vt 0.875000 0.250000
vt 0.625000 0.250000
vt 0.875000 0.250000
vt 0.125000 0.250000
vt 0.375000 0.250000
vt 0.125000 0.250000
vt 0.875000 0.250000
vt 0.625000 0.500000
vt 0.375000 0.500000
vt 0.625000 0.250000
vt 0.375000 0.250000
vt 0.375000 0.500000
vt 0.625000 0.500000
vt 0.875000 0.250000
vt 0.625000 0.250000
vt 0.375000 0.250000
vt 0.125000 0.250000
vt 0.375000 0.250000
vt 0.625000 0.250000
vt 0.625000 0.500000
vt 0.375000 0.500000
vt 0.625000 0.250000
vt 0.875000 0.250000
vt 0.125000 0.250000
vt 0.375000 0.250000
vn 0.000000 0.000000 1.000000
vn 0.000000 0.000000 1.000000
vn 0.000000 0.000000 1.000000
vn 0.000000 0.000000 1.000000
vn 0.000000 1.000000 0.000000
vn 0.000000 1.000000 0.000000
vn 0.000000 1.000000 0.000000
vn 0.000000 1.000000 0.000000
vn 0.000000 0.000000 -1.000000
vn 0.000000 0.000000 -1.000000
vn 0.000000 0.000000 -1.000000
vn 0.000000 0.000000 -1.000000
vn 0.000000 -1.000000 0.000000
vn 0.000000 -1.000000 0.000000
vn 0.000000 -1.000000 0.000000
vn 0.000000 -1.000000 0.000000
vn 1.000000 0.000000 0.000000
vn 1.000000 0.000000 0.000000
vn 1.000000 0.000000 0.000000
vn 1.000000 0.000000 0.000000
vn -1.000000 0.000000 0.000000
vn -1.000000 0.000000 0.000000
vn -1.000000 0.000000 0.000000
vn -1.000000 0.000000 0.000000
vn 0.000000 -1.000000 0.000000
vn 0.000000 -1.000000 0.000000
vn 0.000000 -1.000000 0.000000
vn 0.000000 -1.000000 0.000000
vn 0.707103 0.707111 0.000000
vn 0.707103 0.707111 0.000000
vn 0.707103 0.707111 0.000000
vn 0.707103 0.707111 0.000000
vn 0.000000 0.707107 -0.707107
vn 0.000000 0.707107 -0.707107
vn 0.000000 0.707107 -0.707107
vn 0.000000 0.707107 -0.707107
vn -0.707090 0.707123 0.000000
vn -0.707090 0.707123 0.000000
vn -0.707090 0.707123 0.000000
vn -0.707090 0.707123 0.000000
vn 0.000000 0.707107 0.707107
vn 0.000000 0.707107 0.707107
vn 0.000000 0.707107 0.707107
vn 0.000000 0.707107 0.707107
vn 0.000000 0.000000 -1.000000
vn 0.000000 0.000000 -1.000000
vn 0.000000 0.000000 -1.000000
vn 0.000000 0.000000 -1.000000
vn 0.000000 0.000000 1.000000
vn 0.000000 0.000000 1.000000
vn 0.000000 0.000000 1.000000
vn 0.000000 0.000000 1.000000
vn -1.000000 0.000000 0.000000
vn -1.000000 0.000000 0.000000
vn -1.000000 0.000000 0.000000
vn -1.000000 0.000000 0.000000
vn 1.000000 0.000000 0.000000
vn 1.000000 0.000000 0.000000
vn 1.000000 0.000000 0.000000
vn 1.000000 0.000000 0.000000
vn -0.707105 0.707108 0.000000
vn -0.707105 0.707109 0.000000
vn -0.707105 0.707109 0.000000
vn -0.707105 0.707108 0.000000
vn 0.000000 0.707107 0.707107
vn 0.000000 0.707107 0.707107
vn 0.000000 0.707107 0.707107
vn 0.000000 0.707107 0.707107
vn 0.707080 0.707133 0.000000
vn 0.707081 0.707133 0.000000
vn 0.707081 0.707133 0.000000
vn 0.707080 0.707133 0.000000
vn 0.000000 0.707107 -0.707107
vn 0.000000 0.707107 -0.707107
vn 0.000000 0.707107 -0.707107
vn 0.000000 0.707107 -0.707107
vn 0.000000 0.000000 1.000000
vn 0.000000 0.000000 1.000000
vn 0.000000 0.000000 -1.000000
vn 0.000000 0.000000 -1.000000
vn 1.000000 0.000000 0.000000
vn 1.000000 0.000000 0.000000
vn -1.000000 0.000000 0.000000
vn -1.000000 0.000000 0.000000
vn 0.000000 1.000000 0.000000
vn 0.000000 1.000000 0.000000
vn 0.000000 1.000000 0.000000
vn 0.000000 1.000000 0.000000
vn 0.000000 1.000000 0.000000
vn 0.000000 1.000000 0.000000
vn 0.000000 1.000000 0.000000
vn 0.000000 1.000000 0.000000
s 1
g outside pCube69
usemtl initialShadingGroup
f 65/98/153 66/99/154 67/123/155 68/129/156
s off
f 59/110/157 60/115/158 62/112/159 61/91/160
s 2
f 69/125/161 70/100/162 71/101/163 72/102/164
s 3
f 63/92/165 64/93/166 58/95/167 57/94/168
s 4
f 66/99/169 71/103/170 70/127/171 67/123/172
s 5
f 72/104/173 65/98/174 68/129/175 69/105/176
s 3
f 57/89/168 58/90/167 66/99/177 65/98/178
f 64/93/166 63/92/165 72/102/179 71/101/180
f 58/90/167 64/96/166 71/103/180 66/99/177
f 63/97/165 57/89/168 65/98/178 72/104/179
s off
f 73/131/181 74/118/182 77/106/183 78/137/184
f 74/118/185 73/131/186 76/135/187 75/111/188
f 75/111/189 76/135/190 79/107/191 80/116/192
f 78/108/193 77/113/194 80/109/195 79/133/196
f 60/115/197 59/110/198 74/118/199 75/111/200
f 61/91/201 62/112/202 80/109/203 77/113/204
f 62/114/205 60/115/206 75/111/207 80/116/208
f 59/110/209 61/117/210 77/106/211 74/118/212
f 81/124/213 82/138/214 88/119/215 87/130/216
f 82/138/217 81/124/218 83/128/219 84/132/220
f 84/132/221 83/128/222 85/120/223 86/136/224
f 86/121/225 85/126/226 87/122/227 88/134/228
s 1
f 68/129/156 67/123/155 83/128/229 81/124/230
s 2
f 70/100/162 69/125/161 87/122/231 85/126/232
s 4
f 67/123/172 70/127/171 85/120/233 83/128/234
s 5
f 69/105/176 68/129/175 81/124/235 87/130/236
s 6
f 76/135/237 73/131/238 82/138/239 84/132/240
f 78/108/241 79/133/242 86/121/243 88/134/244
f 79/107/242 76/135/237 84/132/240 86/136/243
f 73/131/238 78/137/241 88/119/244 82/138/239
g default
v -198.212707 -5.246811 164.220244
v 202.212683 -5.246811 164.220244
v -198.212707 -4.024211 164.220244
v 202.212683 -4.024211 164.220244
v -198.212707 -4.024211 -166.220165
v 202.212683 -4.024211 -166.220165
v -198.212707 -5.246811 -166.220165
v 202.212683 -5.246811 -166.220165
v -201.803528 -5.246811 167.866484
v 205.803528 -5.246811 167.866484
v 205.803528 -4.024211 167.866484
v -201.803528 -4.024211 167.866484
v -201.803528 -4.024211 -169.866484
v 205.803528 -4.024211 -169.866484
v 205.803528 -5.246811 -169.866484
v -201.803528 -5.246811 -169.866484
v -198.886598 -2.932386 164.904554
v -198.212707 -3.478244 164.220244
v 202.212683 -3.478244 164.220244
v 202.886598 -2.932386 164.904554
v -198.212707 -3.478244 -166.220165
v -198.886598 -2.932386 -166.904475
v 202.886598 -2.932386 -166.904475
v 202.212683 -3.478244 -166.220165
v -201.803528 -3.478244 167.866484
v -201.129638 -2.932386 167.182174
v 205.803528 -3.478244 167.866484
v 205.129590 -2.932386 167.182174
v 205.803528 -3.478244 -169.866484
v 205.129590 -2.932386 -169.182174
v -201.803528 -3.478244 -169.866484
v -201.129638 -2.932386 -169.182174
vt 0.375000 0.000000
vt 0.625000 0.000000
vt 0.375000 0.500000
vt 0.375000 0.750000
vt 0.625000 0.750000
vt 0.375000 1.000000
vt 0.625000 1.000000
vt 0.875000 0.000000
vt 0.125000 0.000000
vt 0.375000 0.000000
vt 0.625000 0.000000
vt 0.625000 0.500000
vt 0.625000 0.750000
vt 0.375000 0.750000
vt 0.875000 0.000000
vt 0.125000 0.000000
vt 0.125000 0.250000
vt 0.125000 0.250000
vt 0.875000 0.250000
vt 0.375000 0.500000
vt 0.625000 0.500000
vt 0.375000 0.250000
vt 0.625000 0.250000
vt 0.625000 0.500000
vt 0.375000 0.500000
vt 0.875000 0.250000
vt 0.625000 0.250000
vt 0.875000 0.250000
vt 0.125000 0.250000
vt 0.375000 0.250000
vt 0.125000 0.250000
vt 0.875000 0.250000
vt 0.625000 0.500000
vt 0.375000 0.500000
vt 0.625000 0.250000
vt 0.375000 0.250000
vt 0.375000 0.500000
vt 0.625000 0.500000
vt 0.875000 0.250000
vt 0.625000 0.250000
vt 0.375000 0.250000
vt 0.125000 0.250000
vt 0.375000 0.250000
vt 0.625000 0.250000
vt 0.625000 0.500000
vt 0.375000 0.500000
vt 0.625000 0.250000
vt 0.875000 0.250000
vt 0.125000 0.250000
vt 0.375000 0.250000
vn 0.000000 0.000000 1.000000
vn 0.000000 0.000000 1.000000
vn 0.000000 0.000000 1.000000
vn 0.000000 0.000000 1.000000
vn 0.000000 1.000000 0.000000
vn 0.000000 1.000000 0.000000
vn 0.000000 1.000000 0.000000
vn 0.000000 1.000000 0.000000
vn 0.000000 0.000000 -1.000000
vn 0.000000 0.000000 -1.000000
vn 0.000000 0.000000 -1.000000
vn 0.000000 0.000000 -1.000000
vn 0.000000 -1.000000 0.000000
vn 0.000000 -1.000000 0.000000
vn 0.000000 -1.000000 0.000000
vn 0.000000 -1.000000 0.000000
vn 1.000000 0.000000 0.000000
vn 1.000000 0.000000 0.000000
vn 1.000000 0.000000 0.000000
vn 1.000000 0.000000 0.000000
vn -1.000000 0.000000 0.000000
vn -1.000000 0.000000 0.000000
vn -1.000000 0.000000 0.000000
vn -1.000000 0.000000 0.000000
vn 0.000000 -1.000000 0.000000
vn 0.000000 -1.000000 0.000000
vn 0.000000 -1.000000 0.000000
vn 0.000000 -1.000000 0.000000
vn 0.629419 0.777066 0.000000
vn 0.629419 0.777066 0.000000
vn 0.629419 0.777066 0.000000
vn 0.629419 0.777066 0.000000
vn 0.000000 0.781754 -0.623587
vn 0.000000 0.781754 -0.623587
vn 0.000000 0.781754 -0.623587
vn 0.000000 0.781754 -0.623587
vn -0.629406 0.777077 0.000000
vn -0.629406 0.777077 0.000000
vn -0.629406 0.777077 0.000000
vn -0.629406 0.777077 0.000000
vn 0.000000 0.781754 0.623587
vn 0.000000 0.781754 0.623587
vn 0.000000 0.781754 0.623587
vn 0.000000 0.781754 0.623587
vn 0.000000 0.000000 -1.000000
vn 0.000000 0.000000 -1.000000
vn 0.000000 0.000000 -1.000000
vn 0.000000 0.000000 -1.000000
vn 0.000000 0.000000 1.000000
vn 0.000000 0.000000 1.000000
vn 0.000000 0.000000 1.000000
vn 0.000000 0.000000 1.000000
vn -1.000000 0.000000 0.000000
vn -1.000000 0.000000 0.000000
vn -1.000000 0.000000 0.000000
vn -1.000000 0.000000 0.000000
vn 1.000000 0.000000 0.000000
vn 1.000000 0.000000 0.000000
vn 1.000000 0.000000 0.000000
vn 1.000000 0.000000 0.000000
vn -0.629422 0.777064 0.000000
vn -0.629422 0.777064 0.000000
vn -0.629422 0.777064 0.000000
vn -0.629422 0.777064 0.000000
vn 0.000000 0.781754 0.623587
vn 0.000000 0.781754 0.623587
vn 0.000000 0.781754 0.623587
vn 0.000000 0.781754 0.623587
vn 0.629395 0.777085 0.000000
vn 0.629395 0.777085 0.000000
vn 0.629395 0.777085 0.000000
vn 0.629395 0.777085 0.000000
vn 0.000000 0.781754 -0.623587
vn 0.000000 0.781754 -0.623587
vn 0.000000 0.781754 -0.623587
vn 0.000000 0.781754 -0.623587
vn 0.000000 0.000000 1.000000
vn 0.000000 0.000000 1.000000
vn 0.000000 0.000000 -1.000000
vn 0.000000 0.000000 -1.000000
vn 1.000000 0.000000 0.000000
vn 1.000000 0.000000 0.000000
vn -1.000000 0.000000 0.000000
vn -1.000000 0.000000 0.000000
vn 0.000000 1.000000 0.000000
vn 0.000000 1.000000 0.000000
vn 0.000000 1.000000 0.000000
vn 0.000000 1.000000 0.000000
vn 0.000000 1.000000 0.000000
vn 0.000000 1.000000 0.000000
vn 0.000000 1.000000 0.000000
vn 0.000000 1.000000 0.000000
s 1
g outside pCube70
usemtl initialShadingGroup
f 97/148/245 98/149/246 99/173/247 100/179/248
s off
f 91/160/249 92/165/250 94/162/251 93/141/252
s 2
f 101/175/253 102/150/254 103/151/255 104/152/256
s 3
f 95/142/257 96/143/258 90/145/259 89/144/260
s 4
f 98/149/261 103/153/262 102/177/263 99/173/264
s 5
f 104/154/265 97/148/266 100/179/267 101/155/268
s 3
f 89/139/260 90/140/259 98/149/269 97/148/270
f 96/143/258 95/142/257 104/152/271 103/151/272
f 90/140/259 96/146/258 103/153/272 98/149/269
f 95/147/257 89/139/260 97/148/270 104/154/271
s off
f 105/181/273 106/168/274 109/156/275 110/187/276
f 106/168/277 105/181/278 108/185/279 107/161/280
f 107/161/281 108/185/282 111/157/283 112/166/284
f 110/158/285 109/163/286 112/159/287 111/183/288
f 92/165/289 91/160/290 106/168/291 107/161/292
f 93/141/293 94/162/294 112/159/295 109/163/296
f 94/164/297 92/165/298 107/161/299 112/166/300
f 91/160/301 93/167/302 109/156/303 106/168/304
f 113/174/305 114/188/306 120/169/307 119/180/308
f 114/188/309 113/174/310 115/178/311 116/182/312
f 116/182/313 115/178/314 117/170/315 118/186/316
f 118/171/317 117/176/318 119/172/319 120/184/320
s 1
f 100/179/248 99/173/247 115/178/321 113/174/322
s 2
f 102/150/254 101/175/253 119/172/323 117/176/324
s 4
f 99/173/264 102/177/263 117/170/325 115/178/326
s 5
f 101/155/268 100/179/267 113/174/327 119/180/328
s 6
f 108/185/329 105/181/330 114/188/331 116/182/332
f 110/158/333 111/183/334 118/171/335 120/184/336
f 111/157/334 108/185/329 116/182/332 118/186/335
f 105/181/330 110/187/333 120/169/336 114/188/331
