# This file uses centimeters as units for non-parametric coordinates.

mtllib trashbin_small1.mtl
g default
v -0.756288 2.463934 0.756288
v 0.756282 2.463934 0.756288
v 0.756282 2.463934 -0.756288
v -0.756288 2.463934 -0.756288
v -0.503359 3.039964 0.503365
v 0.503359 3.039964 0.503365
v 0.503359 3.039964 -0.503365
v -0.503359 3.039964 -0.503365
v -0.598109 0.137539 0.513295
v -0.513302 0.137539 0.598105
v -0.798533 2.276131 0.798539
v -0.756288 2.281234 0.671479
v -0.671479 2.281234 0.756288
v 0.598108 0.137539 0.513295
v 0.513301 0.137539 0.598105
v 0.798532 2.276131 0.798539
v 0.671475 2.281234 0.756288
v 0.756282 2.281234 0.671479
v -0.798533 2.276131 -0.798539
v -0.671479 2.281234 -0.756288
v -0.756288 2.281234 -0.671479
v -0.598109 0.137539 -0.513300
v -0.513302 0.137539 -0.598105
v 0.798532 2.276131 -0.798539
v 0.756282 2.281234 -0.671479
v 0.671475 2.281234 -0.756288
v 0.598108 0.137539 -0.513300
v 0.513301 0.137539 -0.598105
v 0.925913 2.260745 0.841109
v 0.841102 2.260745 0.925919
v 0.883504 2.265866 0.883511
v 0.925913 2.484424 0.841109
v 0.883504 2.479302 0.883511
v 0.841102 2.484424 0.925919
v -0.925913 2.260745 0.841109
v -0.883509 2.265866 0.883511
v -0.841107 2.260745 0.925919
v -0.925913 2.484424 0.841109
v -0.841107 2.484424 0.925919
v -0.883509 2.479302 0.883511
v 0.841102 2.260745 -0.925919
v 0.925913 2.260745 -0.841109
v 0.883504 2.265866 -0.883517
v 0.841102 2.484424 -0.925919
v 0.883504 2.479302 -0.883517
v 0.925913 2.484424 -0.841109
v -0.925913 2.260745 -0.841109
v -0.841107 2.260745 -0.925919
v -0.883509 2.265866 -0.883517
v -0.925913 2.484424 -0.841109
v -0.883509 2.479302 -0.883517
v -0.841107 2.484424 -0.925919
v -0.435335 2.463934 0.756288
v -0.289746 3.039964 0.503365
v -0.289746 3.039964 -0.503365
v -0.435335 2.463934 -0.756288
v 0.473485 2.463934 0.756288
v 0.315138 3.039964 0.503365
v 0.315138 3.039964 -0.503365
v 0.473485 2.463934 -0.756288
v 0.393967 2.924598 0.554013
v -0.403454 2.924598 0.554013
v -0.554015 2.924598 0.554013
v -0.554015 2.924598 -0.554019
v -0.318904 2.924598 -0.554019
v 0.346851 2.924598 -0.554019
v 0.554011 2.924598 -0.554019
v 0.554011 2.924598 0.554013
v 0.446315 2.562772 0.712888
v -0.410355 2.562772 0.712888
v -0.712887 2.562772 0.712888
v -0.712887 2.562772 -0.712893
v -0.410355 2.562772 -0.712893
v 0.446315 2.562772 -0.712893
v 0.712884 2.562772 -0.712893
v 0.712884 2.562772 0.712888
v 0.446315 2.545982 0.674652
v -0.410355 2.545982 0.674652
v 0.393967 2.907809 0.515777
v -0.403454 2.907809 0.515777
vt 0.375000 0.250000
vt 0.625000 0.250000
vt 0.625000 0.500000
vt 0.375000 0.500000
vt 0.625000 0.767724
vt 0.625000 0.982275
vt 0.607276 1.000000
vt 0.392724 1.000000
vt 0.375001 0.982275
vt 0.375000 0.250000
vt 0.625000 0.250001
vt 0.375000 0.250000
vt 0.375000 0.250000
vt 0.625000 0.250000
vt 0.625000 0.264018
vt 0.625000 0.500000
vt 0.625000 0.250000
vt 0.375000 0.500000
vt 0.375000 0.485983
vt 0.375000 0.264020
vt 0.625000 0.500000
vt 0.375000 0.500000
vt 0.375000 0.500000
vt 0.625000 0.500000
vt 0.607276 0.000000
vt 0.139017 0.250000
vt 0.142724 0.000000
vt 0.357275 0.000000
vt 0.392724 0.750000
vt 0.857276 0.000000
vt 0.860983 0.250000
vt 0.392724 0.000000
vt 0.389017 0.250000
vt 0.642725 0.000000
vt 0.639017 0.250000
vt 0.375000 0.502304
vt 0.375001 0.767724
vt 0.610983 0.500000
vt 0.607277 0.750000
vt 0.613551 0.250000
vt 0.625000 0.261450
vt 0.375000 0.261449
vt 0.386449 0.250000
vt 0.625000 0.488551
vt 0.613551 0.500000
vt 0.386449 0.500000
vt 0.375000 0.488550
vt 0.360983 0.250000
vt 0.610983 0.250000
vt 0.389017 0.500000
vt 0.625000 0.485983
vt 0.625000 0.261449
vt 0.625000 0.250001
vt 0.613551 0.250000
vt 0.375000 0.250000
vt 0.386449 0.250000
vt 0.375000 0.261449
vt 0.613551 0.500000
vt 0.625000 0.500000
vt 0.625000 0.488551
vt 0.375000 0.488551
vt 0.375000 0.500000
vt 0.386449 0.500000
vt 0.428047 0.250000
vt 0.428047 0.250000
vt 0.428047 0.500000
vt 0.428047 0.500000
vt 0.578259 0.250000
vt 0.578259 0.250000
vt 0.578259 0.500000
vt 0.578259 0.500000
vt 0.578259 0.250000
vt 0.428047 0.250000
vt 0.375000 0.250000
vt 0.375000 0.500000
vt 0.428047 0.500000
vt 0.578259 0.500000
vt 0.625000 0.500000
vt 0.625000 0.250000
vt 0.578259 0.250000
vt 0.428047 0.250000
vt 0.375000 0.250000
vt 0.375000 0.500000
vt 0.428047 0.500000
vt 0.578259 0.500000
vt 0.625000 0.500000
vt 0.625000 0.250000
vt 0.428047 0.250000
vt 0.578259 0.250000
vt 0.578259 0.250000
vt 0.428047 0.250000
vn 0.000000 -0.073590 0.997289
vn 0.000000 -0.073590 0.997289
vn 0.000000 -0.073590 0.997289
vn 0.000000 -0.073590 0.997289
vn 0.000000 1.000000 0.000000
vn 0.000000 1.000000 0.000000
vn 0.000000 1.000000 0.000000
vn 0.000000 1.000000 0.000000
vn 0.000000 -0.073590 -0.997289
vn 0.000000 -0.073590 -0.997289
vn 0.000000 -0.073590 -0.997289
vn 0.000000 -0.073590 -0.997289
vn 0.997289 -0.073586 0.000000
vn 0.997289 -0.073586 0.000000
vn 0.997289 -0.073586 0.000000
vn 0.997289 -0.073586 0.000000
vn -0.997289 -0.073588 0.000000
vn -0.997289 -0.073588 0.000000
vn -0.997289 -0.073588 0.000000
vn -0.997289 -0.073588 0.000000
vn 0.000000 0.000000 1.000000
vn 0.000000 0.000000 1.000000
vn 0.000000 0.000000 1.000000
vn 0.000000 0.000000 1.000000
vn 1.000000 0.000000 0.000000
vn 1.000000 0.000000 0.000000
vn 1.000000 0.000000 0.000000
vn 1.000000 0.000000 0.000000
vn 0.000000 0.000000 -1.000000
vn 0.000000 0.000000 -1.000000
vn 0.000000 0.000000 -1.000000
vn 0.000000 0.000000 -1.000000
vn -1.000000 0.000000 0.000000
vn -1.000000 0.000000 0.000000
vn -1.000000 0.000000 0.000000
vn -1.000000 0.000000 0.000000
vn 0.000000 0.402055 0.915616
vn 0.000000 0.402055 0.915616
vn 0.000000 0.402049 0.915618
vn 0.000000 0.402047 0.915619
vn 0.915625 0.402034 0.000000
vn 0.915625 0.402034 0.000000
vn 0.915624 0.402036 0.000000
vn 0.915624 0.402036 0.000000
vn 0.000000 0.402013 -0.915634
vn 0.000000 0.402013 -0.915634
vn 0.000000 0.402030 -0.915627
vn 0.000000 0.402033 -0.915625
vn -0.915616 0.402055 0.000000
vn -0.915616 0.402055 0.000000
vn -0.915621 0.402043 0.000000
vn -0.915621 0.402043 0.000000
vn 0.000000 0.992784 -0.119919
vn 0.000000 0.992784 -0.119919
vn 0.000000 0.992784 -0.119919
vn 0.000000 0.992784 -0.119919
vn 0.000000 0.992784 -0.119919
vn 0.000000 0.992784 -0.119919
vn 0.000000 0.992784 -0.119919
vn 0.000000 0.992784 -0.119919
vn -0.119919 0.992784 0.000000
vn -0.119919 0.992784 0.000000
vn -0.119919 0.992784 0.000000
vn -0.119919 0.992784 0.000000
vn -0.119919 0.992784 0.000000
vn -0.119919 0.992784 0.000000
vn 0.000000 0.992784 0.119920
vn 0.000000 0.992784 0.119920
vn 0.000000 0.992784 0.119920
vn 0.000000 0.992784 0.119920
vn 0.000000 0.992784 0.119920
vn 0.000000 0.992784 0.119920
vn 0.000000 0.992784 0.119920
vn 0.000000 0.992784 0.119920
vn 0.119923 0.992783 0.000000
vn 0.119923 0.992783 0.000000
vn 0.119923 0.992783 0.000000
vn 0.119923 0.992783 0.000000
vn 0.119923 0.992783 0.000000
vn 0.119923 0.992783 0.000000
vn 0.060040 -0.996389 -0.060042
vn 0.000300 -0.992891 -0.119024
vn -0.000300 -0.992891 -0.119024
vn -0.060040 -0.996389 -0.060040
vn -0.000000 -0.992784 -0.119913
vn -0.000000 -0.992784 -0.119913
vn -0.000000 -0.992784 -0.119913
vn -0.000000 -0.992784 -0.119913
vn -0.119023 -0.992891 -0.000300
vn -0.119023 -0.992891 0.000300
vn -0.060041 -0.996389 0.060039
vn -0.119913 -0.992784 0.000000
vn -0.119913 -0.992784 0.000000
vn -0.119913 -0.992784 0.000000
vn -0.119913 -0.992784 0.000000
vn 0.060041 -0.996389 0.060041
vn 0.119027 -0.992891 0.000300
vn 0.119027 -0.992891 -0.000300
vn 0.119916 -0.992784 0.000000
vn 0.119916 -0.992784 0.000000
vn 0.119916 -0.992784 0.000000
vn 0.119916 -0.992784 0.000000
vn 0.000000 -1.000000 0.000000
vn 0.000000 -1.000000 0.000000
vn 0.000000 -1.000000 0.000000
vn 0.000000 -1.000000 0.000000
vn 0.000000 -1.000000 0.000000
vn 0.000000 -1.000000 0.000000
vn 0.000000 -1.000000 0.000000
vn 0.000000 -1.000000 0.000000
vn -0.000300 -0.992891 0.119024
vn 0.000300 -0.992891 0.119024
vn 0.000000 -0.992784 0.119913
vn 0.000000 -0.992784 0.119913
vn 0.000000 -0.992784 0.119913
vn 0.000000 -0.992784 0.119913
vn -0.703296 -0.103790 0.703279
vn -0.703296 -0.103790 0.703279
vn -0.703296 -0.103790 0.703280
vn -0.703296 -0.103790 0.703279
vn 0.703299 -0.103789 0.703277
vn 0.703299 -0.103789 0.703277
vn 0.703299 -0.103789 0.703277
vn 0.703299 -0.103789 0.703277
vn -0.703285 -0.103789 -0.703291
vn -0.703285 -0.103789 -0.703291
vn -0.703285 -0.103789 -0.703291
vn -0.703285 -0.103789 -0.703291
vn 0.703288 -0.103788 -0.703288
vn 0.703288 -0.103788 -0.703288
vn 0.703288 -0.103788 -0.703288
vn 0.703288 -0.103788 -0.703288
vn 0.707101 0.000000 0.707112
vn 0.707101 0.000000 0.707112
vn 0.707101 0.000000 0.707112
vn 0.707101 0.000000 0.707112
vn -0.707123 0.000000 0.707090
vn -0.707123 0.000000 0.707090
vn -0.707123 0.000000 0.707090
vn -0.707123 0.000000 0.707090
vn 0.707101 0.000000 -0.707112
vn 0.707101 0.000000 -0.707112
vn 0.707101 0.000000 -0.707112
vn 0.707101 0.000000 -0.707112
vn -0.707123 0.000000 -0.707090
vn -0.707123 0.000000 -0.707090
vn -0.707123 0.000000 -0.707090
vn -0.707123 0.000000 -0.707090
vn -0.707097 -0.000838 -0.707116
vn -0.707097 -0.000838 -0.707116
vn -0.707097 -0.000838 -0.707116
vn -0.707106 0.000850 -0.707107
vn -0.707106 0.000850 -0.707107
vn -0.707106 0.000850 -0.707107
vn 0.707119 -0.000461 -0.707094
vn 0.707119 -0.000461 -0.707094
vn 0.707119 -0.000461 -0.707094
vn 0.707122 0.000473 -0.707091
vn 0.707122 0.000473 -0.707091
vn 0.707122 0.000473 -0.707091
vn -0.707097 -0.000097 0.707116
vn -0.707097 -0.000097 0.707116
vn -0.707097 -0.000097 0.707116
vn -0.707106 0.000097 0.707107
vn -0.707106 0.000097 0.707107
vn -0.707106 0.000097 0.707107
vn 0.707119 0.000267 0.707095
vn 0.707119 0.000267 0.707095
vn 0.707119 0.000267 0.707095
vn 0.707128 -0.000267 0.707086
vn 0.707128 -0.000267 0.707086
vn 0.707128 -0.000267 0.707086
vn 0.000000 0.402055 0.915616
vn 0.000000 0.402049 0.915618
vn 0.000000 1.000000 0.000000
vn 0.000000 1.000000 0.000000
vn 0.000000 0.402013 -0.915634
vn 0.000000 0.402033 -0.915625
vn 0.000000 0.402055 0.915615
vn 0.000000 0.402047 0.915619
vn 0.000000 1.000000 0.000000
vn 0.000000 1.000000 0.000000
vn 0.000000 0.402013 -0.915634
vn 0.000000 0.402030 -0.915626
vn 0.000000 0.402018 0.915632
vn 0.000000 0.402015 0.915633
vn 0.000000 0.401990 0.915644
vn 0.000000 0.401990 0.915644
vn 0.000000 0.402035 0.915624
vn 0.000000 0.401990 0.915644
vn -0.915624 0.402036 0.000000
vn -0.915624 0.402036 0.000000
vn -0.915621 0.402044 0.000000
vn -0.915621 0.402044 0.000000
vn 0.000000 0.402038 -0.915623
vn 0.000000 0.402039 -0.915622
vn 0.000000 0.402026 -0.915628
vn 0.000000 0.402026 -0.915628
vn 0.000000 0.402038 -0.915623
vn 0.000000 0.402026 -0.915628
vn 0.000000 0.402039 -0.915622
vn 0.000000 0.402026 -0.915628
vn 0.915624 0.402036 0.000000
vn 0.915624 0.402036 0.000000
vn 0.915632 0.402017 0.000000
vn 0.915632 0.402017 0.000000
vn 0.000000 0.402035 0.915624
vn 0.000000 0.401990 0.915644
vn 0.000000 0.402041 0.915622
vn 0.000000 0.402041 0.915622
vn 0.000000 0.402041 0.915622
vn 0.000000 0.402041 0.915622
vn 0.000000 0.915611 -0.402065
vn 0.000000 0.915611 -0.402065
vn 0.000000 0.915611 -0.402065
vn 0.000000 0.915611 -0.402065
vn -0.991340 -0.120241 0.052800
vn -0.991340 -0.120241 0.052800
vn -0.991340 -0.120241 0.052800
vn -0.991340 -0.120241 0.052800
vn 0.000000 -0.915614 0.402058
vn 0.000000 -0.915614 0.402058
vn 0.000000 -0.915614 0.402058
vn 0.000000 -0.915614 0.402058
vn 0.999847 -0.015987 0.007020
vn 0.999847 -0.015987 0.007020
vn 0.999847 -0.015987 0.007020
vn 0.999847 -0.015987 0.007020
s off
g trashbin_small1
usemtl initialShadingGroup
f 13/33/1 10/32/2 15/25/3 17/49/4
s 1
f 5/1/5 54/65/6 55/66/7 8/4/8
s off
f 23/29/9 20/50/10 26/38/11 28/39/12
f 18/35/13 14/34/14 27/30/15 25/31/16
f 21/26/17 22/27/18 9/28/19 12/48/20
f 39/43/21 37/56/22 30/40/23 34/54/24
f 32/41/25 29/52/26 42/44/27 46/60/28
f 44/45/29 41/58/30 48/46/31 52/63/32
f 50/47/33 47/61/34 35/42/35 38/57/36
s 2
f 1/12/37 53/64/38 70/81/39 71/82/40
s 3
f 2/17/41 3/24/42 75/86/43 76/87/44
s 4
f 56/67/45 4/23/46 72/83/47 73/84/48
s 5
f 4/23/49 1/12/50 71/82/51 72/83/52
s off
f 2/17/53 57/68/54 53/64/55 1/12/56 40/13/57 39/43/58 34/54/59 33/53/60
f 3/24/61 2/17/62 33/53/63 32/41/64 46/60/65 45/59/66
f 4/23/67 56/67/68 60/71/69 3/24/70 45/59/71 44/45/72 52/63/73 51/62/74
f 1/12/75 4/23/76 51/62/77 50/47/78 38/57/79 40/13/80
s 6
f 11/10/81 13/33/82 17/49/83 16/14/84 31/11/85 30/40/86 37/56/87 36/55/88
f 16/14/84 18/15/89 25/51/90 24/21/91 43/16/92 42/44/93 29/52/94 31/11/95
f 19/18/96 21/19/97 12/20/98 11/10/81 36/55/99 35/42/100 47/61/101 49/22/102
s off
f 22/37/103 23/29/104 28/39/105 27/5/106 14/6/107 15/7/108 10/8/109 9/9/110
s 6
f 24/21/91 26/38/111 20/50/112 19/18/96 49/22/113 48/46/114 41/58/115 43/16/116
s off
f 9/28/117 10/32/118 13/33/119 12/48/120
f 15/25/121 14/34/122 18/35/123 17/49/124
f 21/36/125 20/50/126 23/29/127 22/37/128
f 26/38/129 25/51/130 27/5/131 28/39/132
f 30/40/133 29/52/134 32/41/135 34/54/136
f 35/42/137 37/56/138 39/43/139 38/57/140
f 42/44/141 41/58/142 44/45/143 46/60/144
f 48/46/145 47/61/146 50/47/147 52/63/148
s 6
f 11/10/81 12/48/98 13/33/82
f 16/14/84 17/49/83 18/35/89
f 19/18/96 20/50/112 21/36/97
f 24/21/91 25/51/90 26/38/111
s off
f 29/52/149 30/40/150 31/11/151
f 32/41/152 33/53/153 34/54/154
f 35/42/155 36/55/156 37/56/157
f 38/57/158 39/43/159 40/13/160
f 41/58/161 42/44/162 43/16/163
f 44/45/164 45/59/165 46/60/166
f 47/61/167 48/46/168 49/22/169
f 50/47/170 51/62/171 52/63/172
s 2
f 53/64/38 57/68/173 69/80/174 70/81/39
s 1
f 55/66/7 54/65/6 58/69/175 59/70/176
s 4
f 60/71/177 56/67/45 73/84/48 74/85/178
s 2
f 57/68/173 2/17/179 76/87/180 69/80/174
s 1
f 59/70/176 58/69/175 6/2/181 7/3/182
s 4
f 3/24/183 60/71/177 74/85/178 75/86/184
s 2
f 62/73/185 61/72/186 58/69/187 54/65/188
f 63/74/189 62/73/185 54/65/188 5/1/190
s 5
f 64/75/191 63/74/192 5/1/193 8/4/194
s 4
f 65/76/195 64/75/196 8/4/197 55/66/198
f 66/77/199 65/76/195 55/66/198 59/70/200
f 67/78/201 66/77/199 59/70/200 7/3/202
s 3
f 68/79/203 67/78/204 7/3/205 6/2/206
s 2
f 61/72/186 68/79/207 6/2/208 58/69/187
s off
f 78/88/209 77/89/210 79/90/211 80/91/212
s 2
f 71/82/40 70/81/39 62/73/185 63/74/189
s 5
f 72/83/52 71/82/51 63/74/192 64/75/191
s 4
f 73/84/48 72/83/47 64/75/196 65/76/195
f 74/85/178 73/84/48 65/76/195 66/77/199
f 75/86/184 74/85/178 66/77/199 67/78/201
s 3
f 76/87/44 75/86/43 67/78/204 68/79/203
s 2
f 69/80/174 76/87/180 68/79/207 61/72/186
s off
f 70/81/213 69/80/214 77/89/215 78/88/216
f 69/80/217 61/72/218 79/90/219 77/89/220
f 61/72/221 62/73/222 80/91/223 79/90/224
f 62/73/225 70/81/226 78/88/227 80/91/228
